<svg width="800" height="500" viewBox="0 0 1214 569" fill="none" xmlns="http://www.w3.org/2000/svg">
<rect width="1213.44" height="569" fill="#7E0072"/>
<ellipse opacity="0.4" cx="900.156" cy="296.436" rx="74.9878" ry="75.4356" fill="#C4C4C4"/>
<ellipse opacity="0.4" cx="179.738" cy="464.083" rx="57.7381" ry="58.0828" fill="#C4C4C4"/>
<ellipse opacity="0.4" cx="545.69" cy="203.519" rx="48.6904" ry="48.9812" fill="#C4C4C4"/>
<rect opacity="0.4" x="567.677" y="60.5378" width="137.212" height="137.212" transform="rotate(31.0037 567.677 60.5378)" fill="#C4C4C4"/>
<rect opacity="0.4" x="774" y="321.33" width="73.0859" height="73.1511" transform="rotate(-45.4137 774 321.33)" fill="#C4C4C4"/>
<rect opacity="0.4" x="37.2911" y="397.724" width="109.971" height="110.069" transform="rotate(6.4988 37.2911 397.724)" fill="#C4C4C4"/>
<path opacity="0.4" d="M118.04 76.6386L124.866 157.941L50.3538 122.194L118.04 76.6386Z" fill="#C4C4C4"/>
<path opacity="0.4" d="M926.943 316.113L1028.15 402.365L900.897 446.515L926.943 316.113Z" fill="#C4C4C4"/>
<path opacity="0.4" d="M35.5449 111.442L84.8331 131.167L42.3202 164.097L35.5449 111.442Z" fill="#C4C4C4"/>
<path opacity="0.4" d="M137.029 305.715C142.913 301.67 150.681 301.67 156.565 305.715L204.286 338.521C210.666 342.907 213.34 351.007 210.826 358.33L192.996 410.251C190.604 417.216 184.053 421.893 176.688 421.893H116.905C109.541 421.893 102.99 417.216 100.598 410.251L82.7682 358.33C80.2537 351.007 82.9281 342.907 89.308 338.521L137.029 305.715Z" fill="#C4C4C4"/>
<path opacity="0.4" d="M471.84 238.732C469.574 245.503 463.369 250.177 456.236 250.486L413.269 252.349C405.535 252.684 398.525 247.823 396.128 240.461L383.602 201.995C381.321 194.992 383.74 187.315 389.623 182.884L425.249 156.048C431.132 151.617 439.179 151.411 445.28 155.535L478.795 178.191C485.209 182.527 487.947 190.607 485.49 197.949L471.84 238.732Z" fill="#C4C4C4"/>
<path opacity="0.4" d="M455.459 33.949C460.359 28.6481 468.042 26.9607 474.713 29.7205L557.132 63.8214C564.225 66.7561 568.524 74.0265 567.677 81.6558L558.173 167.3C557.358 174.645 551.952 180.654 544.734 182.239L455.79 201.773C448.572 203.358 441.146 200.167 437.328 193.84L392.811 120.06C388.846 113.487 389.702 105.084 394.913 99.4476L455.459 33.949Z" fill="#C4C4C4"/>
</svg>
