<svg viewBox="0 0 275 61" fill="none">
                <path
                    d="M25.1348 46.6543L45.2629 22.8133C53.9344 12.5422 36.5935 -1.9078 28.0158 8.25218L1.72601 39.3325L1.72602 10.0787C1.72602 3.18966 13.4467 2.92334 13.4467 10.0787V16.8673M25.1348 46.6543L16.6058 56.7566C10.1727 64.3764 -2.6922 53.1196 3.54602 45.7307L27.9143 16.8673C33.7627 9.94004 42.6114 17.0152 36.568 24.1734L20.5122 42.6958C20.5122 42.6958 22.4312 44.3409 25.1348 46.6543ZM25.1348 46.6543C29.0233 49.9815 34.5348 54.6912 38.2947 57.8774C44.6689 63.2789 51.5117 52.1151 45.5711 47.7537C39.6304 43.3923 37.7147 41.7427 37.7147 41.7427"
                    stroke="#7E0072" stroke-width="3.00316" stroke-linecap="round" stroke-linejoin="round" />
                    
                <rect x="236.708" y="1.05561" width="37.5645" height="17.4625" rx="3.5373" stroke="#7E0072"
                    stroke-width="0.544199" />
                <path
                    d="M242.82 14C242.644 14 242.497 13.9401 242.377 13.8204C242.257 13.7007 242.197 13.553 242.197 13.3774V5.27213C242.197 5.08855 242.257 4.94089 242.377 4.82915C242.497 4.70943 242.644 4.64957 242.82 4.64957L249.189 4.64957C249.373 4.64957 249.52 4.70943 249.632 4.82915C249.752 4.94089 249.812 5.08855 249.812 5.27213V13.3774C249.812 13.553 249.752 13.7007 249.632 13.8204C249.52 13.9401 249.373 14 249.189 14C249.014 14 248.866 13.9401 248.746 13.8204C248.626 13.7007 248.567 13.553 248.567 13.3774V5.75103L243.442 5.75103V13.3774C243.442 13.553 243.383 13.7007 243.263 13.8204C243.151 13.9401 243.003 14 242.82 14ZM252.828 14C252.652 14 252.505 13.9401 252.385 13.8204C252.265 13.7007 252.205 13.553 252.205 13.3774V5.27213C252.205 5.08855 252.265 4.94089 252.385 4.82915C252.505 4.70943 252.652 4.64957 252.828 4.64957L255.222 4.64957C255.821 4.64957 256.352 4.78126 256.815 5.04466C257.278 5.30805 257.637 5.6752 257.892 6.14611C258.156 6.60905 258.287 7.14381 258.287 7.75041C258.287 8.33307 258.156 8.85187 257.892 9.30682C257.637 9.76178 257.278 10.117 256.815 10.3724C256.352 10.6278 255.821 10.7555 255.222 10.7555L253.451 10.7555V13.3774C253.451 13.553 253.391 13.7007 253.271 13.8204C253.159 13.9401 253.012 14 252.828 14ZM253.451 9.60613L255.222 9.60613C255.765 9.60613 256.212 9.43453 256.563 9.09132C256.915 8.74013 257.09 8.29316 257.09 7.75041C257.09 7.3673 257.01 7.03207 256.851 6.74473C256.691 6.44942 256.472 6.21795 256.192 6.05034C255.913 5.88272 255.59 5.79892 255.222 5.79892H253.451V9.60613ZM263.987 14.1197C263.284 14.1197 262.642 14.004 262.059 13.7725C261.477 13.5331 260.974 13.2018 260.551 12.7788C260.136 12.3478 259.812 11.841 259.581 11.2583C259.349 10.6677 259.234 10.0212 259.234 9.3188C259.234 8.61642 259.349 7.9739 259.581 7.39124C259.812 6.80859 260.136 6.30575 260.551 5.88272C260.974 5.45172 261.477 5.12048 262.059 4.88901C262.642 4.64957 263.284 4.52984 263.987 4.52984C264.689 4.52984 265.328 4.64957 265.902 4.88901C266.485 5.12048 266.988 5.45172 267.411 5.88272C267.834 6.30575 268.161 6.80859 268.393 7.39124C268.624 7.9739 268.74 8.61642 268.74 9.3188C268.74 10.0212 268.624 10.6677 268.393 11.2583C268.161 11.841 267.834 12.3478 267.411 12.7788C266.988 13.2018 266.485 13.5331 265.902 13.7725C265.328 14.004 264.689 14.1197 263.987 14.1197ZM263.987 12.9943C264.681 12.9943 265.296 12.8347 265.831 12.5154C266.365 12.1882 266.784 11.7492 267.088 11.1985C267.391 10.6398 267.543 10.0132 267.543 9.3188C267.543 8.6244 267.391 8.00183 267.088 7.4511C266.784 6.89239 266.365 6.45341 265.831 6.13414C265.296 5.81488 264.681 5.65525 263.987 5.65525C263.292 5.65525 262.678 5.81488 262.143 6.13414C261.608 6.45341 261.189 6.89239 260.886 7.4511C260.583 8.00183 260.431 8.6244 260.431 9.3188C260.431 10.0132 260.583 10.6398 260.886 11.1985C261.189 11.7492 261.608 12.1882 262.143 12.5154C262.678 12.8347 263.292 12.9943 263.987 12.9943Z"
                    fill="#7E0072" />
                <path
                    d="M62.5611 42.0514C61.046 42.0514 59.6529 41.7902 58.3816 41.2677C57.1104 40.7453 56.0045 40.0139 55.0642 39.0735C54.1412 38.1331 53.4185 37.0273 52.8961 35.7561C52.3911 34.4848 52.1385 33.0917 52.1385 31.5766C52.1385 30.079 52.3911 28.6945 52.8961 27.4233C53.4185 26.152 54.1412 25.0462 55.0642 24.1059C56.0045 23.1655 57.1104 22.4341 58.3816 21.9116C59.6529 21.3892 61.046 21.128 62.5611 21.128C64.0587 21.128 65.4431 21.3892 66.7144 21.9116C67.9856 22.4341 69.0914 23.1655 70.0318 24.1059C70.9722 25.0462 71.6949 26.152 72.1999 27.4233C72.7223 28.6945 72.9836 30.079 72.9836 31.5766C72.9836 33.0917 72.7223 34.4848 72.1999 35.7561C71.6949 37.0273 70.9722 38.1331 70.0318 39.0735C69.0914 40.0139 67.9856 40.7453 66.7144 41.2677C65.4431 41.7902 64.0587 42.0514 62.5611 42.0514ZM62.5611 40.1184C63.7626 40.1184 64.8772 39.9094 65.9046 39.4915C66.9321 39.0561 67.8202 38.4553 68.569 37.6891C69.3352 36.9054 69.9273 35.9999 70.3453 34.9724C70.7632 33.9276 70.9722 32.7956 70.9722 31.5766C70.9722 30.375 70.7632 29.2605 70.3453 28.2331C69.9273 27.1882 69.3352 26.2827 68.569 25.5164C67.8202 24.7328 66.9321 24.132 65.9046 23.714C64.8772 23.2787 63.7626 23.061 62.5611 23.061C61.342 23.061 60.2188 23.2787 59.1914 23.714C58.1639 24.132 57.2671 24.7328 56.5009 25.5164C55.752 26.2827 55.1687 27.1882 54.7507 28.2331C54.3328 29.2605 54.1238 30.375 54.1238 31.5766C54.1238 32.7956 54.3328 33.9276 54.7507 34.9724C55.1687 35.9999 55.752 36.9054 56.5009 37.6891C57.2671 38.4553 58.1639 39.0561 59.1914 39.4915C60.2188 39.9094 61.342 40.1184 62.5611 40.1184ZM78.2052 41.7902C77.9266 41.7902 77.6828 41.6944 77.4738 41.5028C77.2823 41.2939 77.1865 41.05 77.1865 40.7714V22.408C77.1865 22.1119 77.2823 21.8681 77.4738 21.6766C77.6828 21.485 77.9266 21.3892 78.2052 21.3892C78.6232 21.3892 78.9279 21.5634 79.1195 21.9116L87.4784 38.525L95.6806 21.9116C95.8895 21.5634 96.1943 21.3892 96.5948 21.3892C96.8734 21.3892 97.1085 21.485 97.3001 21.6766C97.4916 21.8681 97.5874 22.1119 97.5874 22.408V40.7714C97.5874 41.05 97.4916 41.2939 97.3001 41.5028C97.1085 41.6944 96.8734 41.7902 96.5948 41.7902C96.2988 41.7902 96.0463 41.6944 95.8373 41.5028C95.6457 41.2939 95.5499 41.05 95.5499 40.7714V25.9866L88.2881 40.8237C88.0966 41.1545 87.8005 41.32 87.4 41.32C86.9647 41.32 86.6512 41.111 86.4596 40.6931L79.224 26.2217V40.7714C79.224 41.05 79.1195 41.2939 78.9105 41.5028C78.7189 41.6944 78.4839 41.7902 78.2052 41.7902ZM103.973 41.7902C103.642 41.7902 103.363 41.7031 103.137 41.5289C102.928 41.3374 102.823 41.0849 102.823 40.7714V22.408C102.823 22.1119 102.919 21.8681 103.111 21.6766C103.302 21.485 103.546 21.3892 103.842 21.3892H114.97C115.231 21.3892 115.449 21.485 115.623 21.6766C115.814 21.8507 115.91 22.0858 115.91 22.3818C115.91 22.6779 115.814 22.913 115.623 23.0871C115.449 23.2613 115.231 23.3483 114.97 23.3483H104.861V29.7481H111.313C112.532 29.7481 113.612 30.0093 114.552 30.5318C115.51 31.0368 116.259 31.7421 116.798 32.6476C117.338 33.5357 117.608 34.5632 117.608 35.73C117.608 36.9141 117.338 37.9677 116.798 38.8907C116.259 39.7962 115.51 40.5102 114.552 41.0326C113.612 41.5377 112.532 41.7902 111.313 41.7902H103.973ZM104.861 39.831H111.313C112.567 39.831 113.594 39.4479 114.395 38.6817C115.196 37.9155 115.597 36.9054 115.597 35.6516C115.597 34.3978 115.196 33.4051 114.395 32.6737C113.594 31.9249 112.567 31.5505 111.313 31.5505H104.861V39.831ZM122.694 41.7902C122.415 41.7902 122.172 41.6944 121.963 41.5028C121.754 41.3113 121.649 41.0675 121.649 40.7714V22.408C121.649 22.1119 121.754 21.8681 121.963 21.6766C122.172 21.485 122.415 21.3892 122.694 21.3892C122.99 21.3892 123.225 21.485 123.399 21.6766C123.591 21.8681 123.687 22.1119 123.687 22.408V38.4466L136.721 21.7549C136.913 21.5111 137.174 21.3892 137.505 21.3892C137.801 21.3892 138.045 21.485 138.236 21.6766C138.428 21.8681 138.524 22.1119 138.524 22.408V40.7714C138.524 41.0675 138.428 41.3113 138.236 41.5028C138.045 41.6944 137.801 41.7902 137.505 41.7902C137.209 41.7902 136.965 41.6944 136.774 41.5028C136.582 41.3113 136.486 41.0675 136.486 40.7714V24.7589L123.452 41.4506C123.278 41.677 123.025 41.7902 122.694 41.7902ZM144.759 41.7902C144.463 41.7902 144.219 41.6944 144.028 41.5028C143.836 41.3113 143.74 41.0675 143.74 40.7714V22.408C143.74 22.1119 143.836 21.8681 144.028 21.6766C144.219 21.485 144.463 21.3892 144.759 21.3892C145.055 21.3892 145.299 21.485 145.491 21.6766C145.682 21.8681 145.778 22.1119 145.778 22.408V30.5579H158.525V22.408C158.525 22.1119 158.621 21.8681 158.813 21.6766C159.004 21.485 159.248 21.3892 159.544 21.3892C159.84 21.3892 160.084 21.485 160.275 21.6766C160.467 21.8681 160.563 22.1119 160.563 22.408V40.7714C160.563 41.0675 160.467 41.3113 160.275 41.5028C160.084 41.6944 159.84 41.7902 159.544 41.7902C159.248 41.7902 159.004 41.6944 158.813 41.5028C158.621 41.3113 158.525 41.0675 158.525 40.7714V32.3864H145.778V40.7714C145.778 41.0675 145.682 41.3113 145.491 41.5028C145.299 41.6944 145.055 41.7902 144.759 41.7902ZM164.657 41.7902C164.257 41.7902 163.969 41.6247 163.795 41.2939C163.621 40.963 163.604 40.6408 163.743 40.3274L171.423 22.0945C171.614 21.6243 171.945 21.3892 172.415 21.3892C172.868 21.3892 173.19 21.6243 173.382 22.0945L181.088 40.3535C181.244 40.6843 181.218 41.0065 181.009 41.32C180.818 41.6334 180.539 41.7902 180.173 41.7902C179.703 41.7902 179.381 41.5812 179.207 41.1632L177.483 36.9315H167.348L165.598 41.1632C165.511 41.3722 165.38 41.5289 165.206 41.6334C165.049 41.7379 164.866 41.7902 164.657 41.7902ZM168.079 35.1814H176.751L172.415 24.7067L168.079 35.1814ZM187.985 41.7902C187.706 41.7902 187.463 41.6944 187.254 41.5028C187.062 41.2939 186.966 41.05 186.966 40.7714V23.2438H180.775C180.497 23.2438 180.27 23.1568 180.096 22.9826C179.922 22.8085 179.835 22.5908 179.835 22.3296C179.835 22.051 179.922 21.8246 180.096 21.6504C180.27 21.4763 180.497 21.3892 180.775 21.3892H195.221C195.499 21.3892 195.726 21.4763 195.9 21.6504C196.074 21.8246 196.161 22.051 196.161 22.3296C196.161 22.5908 196.074 22.8085 195.9 22.9826C195.726 23.1568 195.499 23.2438 195.221 23.2438H189.004V40.7714C189.004 41.05 188.908 41.2939 188.716 41.5028C188.525 41.6944 188.281 41.7902 187.985 41.7902ZM207.301 42.0514C205.786 42.0514 204.393 41.7902 203.122 41.2677C201.85 40.7453 200.745 40.0139 199.804 39.0735C198.881 38.1331 198.159 37.0273 197.636 35.7561C197.131 34.4848 196.879 33.0917 196.879 31.5766C196.879 30.079 197.131 28.6945 197.636 27.4233C198.159 26.152 198.881 25.0462 199.804 24.1059C200.745 23.1655 201.85 22.4341 203.122 21.9116C204.393 21.3892 205.786 21.128 207.301 21.128C208.799 21.128 210.183 21.3892 211.454 21.9116C212.726 22.4341 213.831 23.1655 214.772 24.1059C215.712 25.0462 216.435 26.152 216.94 27.4233C217.462 28.6945 217.724 30.079 217.724 31.5766C217.724 33.0917 217.462 34.4848 216.94 35.7561C216.435 37.0273 215.712 38.1331 214.772 39.0735C213.831 40.0139 212.726 40.7453 211.454 41.2677C210.183 41.7902 208.799 42.0514 207.301 42.0514ZM207.301 40.1184C208.503 40.1184 209.617 39.9094 210.645 39.4915C211.672 39.0561 212.56 38.4553 213.309 37.6891C214.075 36.9054 214.667 35.9999 215.085 34.9724C215.503 33.9276 215.712 32.7956 215.712 31.5766C215.712 30.375 215.503 29.2605 215.085 28.2331C214.667 27.1882 214.075 26.2827 213.309 25.5164C212.56 24.7328 211.672 24.132 210.645 23.714C209.617 23.2787 208.503 23.061 207.301 23.061C206.082 23.061 204.959 23.2787 203.931 23.714C202.904 24.132 202.007 24.7328 201.241 25.5164C200.492 26.2827 199.909 27.1882 199.491 28.2331C199.073 29.2605 198.864 30.375 198.864 31.5766C198.864 32.7956 199.073 33.9276 199.491 34.9724C199.909 35.9999 200.492 36.9054 201.241 37.6891C202.007 38.4553 202.904 39.0561 203.931 39.4915C204.959 39.9094 206.082 40.1184 207.301 40.1184ZM222.945 41.7902C222.649 41.7902 222.405 41.6944 222.214 41.5028C222.022 41.3113 221.927 41.0675 221.927 40.7714V22.408C221.927 22.1119 222.022 21.8681 222.214 21.6766C222.405 21.485 222.649 21.3892 222.945 21.3892H228.17C229.458 21.3892 230.599 21.6766 231.591 22.2512C232.584 22.8085 233.359 23.5834 233.916 24.576C234.474 25.5687 234.752 26.718 234.752 28.0241C234.752 29.2953 234.474 30.4273 233.916 31.4199C233.359 32.3951 232.584 33.17 231.591 33.7447C230.599 34.302 229.458 34.5806 228.17 34.5806H223.964V40.7714C223.964 41.0675 223.868 41.3113 223.677 41.5028C223.485 41.6944 223.241 41.7902 222.945 41.7902ZM223.964 32.6215H228.17C229.058 32.6215 229.85 32.4299 230.547 32.0468C231.243 31.6463 231.783 31.0977 232.166 30.4012C232.567 29.7046 232.767 28.9122 232.767 28.0241C232.767 27.1011 232.567 26.2914 232.166 25.5948C231.783 24.8982 231.243 24.3497 230.547 23.9491C229.85 23.5486 229.058 23.3483 228.17 23.3483H223.964V32.6215Z"
                    fill="black" />
            </svg>